<svg width="172" height="38" viewBox="0 0 172 38" fill="none" xmlns="http://www.w3.org/2000/svg">
<rect x="1" y="1" width="170" height="36" fill="#14131E" stroke="#262439"/>
<path d="M19.1735 16.742H17.1155V15.65H22.3865V16.742H20.3285V23H19.1735V16.742ZM28.3368 17.6765C28.3368 18.1805 28.2108 18.6005 27.9588 18.9365C27.7138 19.2725 27.3638 19.5 26.9088 19.619L29.0298 23H27.6648L25.5963 19.703H24.7458V23H23.5908V15.65H26.1633C26.8493 15.65 27.3813 15.832 27.7593 16.196C28.1443 16.553 28.3368 17.0465 28.3368 17.6765ZM24.7458 18.611H26.1948C26.4958 18.611 26.7303 18.534 26.8983 18.38C27.0733 18.219 27.1608 17.9845 27.1608 17.6765C27.1608 17.3685 27.0733 17.1375 26.8983 16.9835C26.7303 16.8225 26.4958 16.742 26.1948 16.742H24.7458V18.611ZM29.8505 23L32.402 15.65H33.494L36.0455 23H34.8695L34.2605 21.173H31.6355L31.0265 23H29.8505ZM33.914 20.081L32.948 17.1095L31.982 20.081H33.914ZM41.4196 20.942V15.65H42.5746V23H41.3356L38.3221 17.729V23H37.1671V15.65H38.4061L41.4196 20.942ZM48.3556 16.805L47.4211 17.4245C47.1341 16.8855 46.7701 16.616 46.3291 16.616C46.0981 16.616 45.9126 16.693 45.7726 16.847C45.6326 16.994 45.5626 17.183 45.5626 17.414C45.5626 17.862 45.9336 18.261 46.6756 18.611C46.9766 18.744 47.2146 18.8595 47.3896 18.9575C47.5646 19.0485 47.7711 19.185 48.0091 19.367C48.2471 19.549 48.4221 19.7625 48.5341 20.0075C48.6531 20.2525 48.7126 20.5325 48.7126 20.8475C48.7126 21.5125 48.4956 22.0515 48.0616 22.4645C47.6276 22.8775 47.0781 23.084 46.4131 23.084C45.7901 23.084 45.2616 22.8985 44.8276 22.5275C44.4006 22.1495 44.1206 21.6525 43.9876 21.0365L44.9326 20.438C45.1916 21.474 45.6851 21.992 46.4131 21.992C46.7421 21.992 47.0116 21.8905 47.2216 21.6875C47.4316 21.4775 47.5366 21.2115 47.5366 20.8895C47.5366 20.6655 47.4596 20.4695 47.3056 20.3015C47.1516 20.1265 46.9591 19.9865 46.7281 19.8815C46.4971 19.7695 46.2451 19.6435 45.9721 19.5035C45.6991 19.3635 45.4471 19.22 45.2161 19.073C44.9851 18.919 44.7926 18.709 44.6386 18.443C44.4846 18.17 44.4076 17.855 44.4076 17.498C44.4076 16.952 44.5931 16.4935 44.9641 16.1225C45.3351 15.7515 45.7901 15.566 46.3291 15.566C47.2181 15.566 47.8936 15.979 48.3556 16.805ZM49.4509 23L52.0024 15.65H53.0944L55.6459 23H54.4699L53.8609 21.173H51.2359L50.6269 23H49.4509ZM53.5144 20.081L52.5484 17.1095L51.5824 20.081H53.5144ZM62.7306 17.792L61.6386 18.065C61.4496 17.575 61.2081 17.218 60.9141 16.994C60.6201 16.77 60.2351 16.658 59.7591 16.658C59.0941 16.658 58.5551 16.8925 58.1421 17.3615C57.7361 17.8305 57.5331 18.485 57.5331 19.325C57.5331 20.165 57.7361 20.8195 58.1421 21.2885C58.5551 21.7575 59.0941 21.992 59.7591 21.992C60.2351 21.992 60.6201 21.88 60.9141 21.656C61.2081 21.432 61.4496 21.075 61.6386 20.585L62.7306 20.858C62.5416 21.572 62.1916 22.1215 61.6806 22.5065C61.1696 22.8915 60.5291 23.084 59.7591 23.084C58.8071 23.084 58.0021 22.755 57.3441 22.097C56.6861 21.439 56.3571 20.515 56.3571 19.325C56.3571 18.142 56.6861 17.2215 57.3441 16.5635C58.0091 15.8985 58.8141 15.566 59.7591 15.566C60.5291 15.566 61.1696 15.7585 61.6806 16.1435C62.1916 16.5285 62.5416 17.078 62.7306 17.792ZM65.4959 16.742H63.4379V15.65H68.7089V16.742H66.6509V23H65.4959V16.742ZM71.0682 23H69.9132V15.65H71.0682V23ZM73.6013 16.553C74.2523 15.895 75.0538 15.566 76.0058 15.566C76.9648 15.566 77.7628 15.895 78.3998 16.553C79.0508 17.204 79.3763 18.128 79.3763 19.325C79.3763 20.515 79.0508 21.4425 78.3998 22.1075C77.7558 22.7585 76.9578 23.084 76.0058 23.084C75.0538 23.084 74.2523 22.7585 73.6013 22.1075C72.9573 21.4425 72.6353 20.515 72.6353 19.325C72.6353 18.135 72.9573 17.211 73.6013 16.553ZM77.5703 17.3405C77.1573 16.8855 76.6358 16.658 76.0058 16.658C75.3758 16.658 74.8508 16.8855 74.4308 17.3405C74.0178 17.7955 73.8113 18.457 73.8113 19.325C73.8113 20.193 74.0178 20.8545 74.4308 21.3095C74.8508 21.7645 75.3758 21.992 76.0058 21.992C76.6358 21.992 77.1573 21.7645 77.5703 21.3095C77.9903 20.8545 78.2003 20.193 78.2003 19.325C78.2003 18.457 77.9903 17.7955 77.5703 17.3405ZM85.0759 20.942V15.65H86.2309V23H84.9919L81.9784 17.729V23H80.8234V15.65H82.0624L85.0759 20.942ZM92.0119 16.805L91.0774 17.4245C90.7904 16.8855 90.4264 16.616 89.9854 16.616C89.7544 16.616 89.5689 16.693 89.4289 16.847C89.2889 16.994 89.2189 17.183 89.2189 17.414C89.2189 17.862 89.5899 18.261 90.3319 18.611C90.6329 18.744 90.8709 18.8595 91.0459 18.9575C91.2209 19.0485 91.4274 19.185 91.6654 19.367C91.9034 19.549 92.0784 19.7625 92.1904 20.0075C92.3094 20.2525 92.3689 20.5325 92.3689 20.8475C92.3689 21.5125 92.1519 22.0515 91.7179 22.4645C91.2839 22.8775 90.7344 23.084 90.0694 23.084C89.4464 23.084 88.9179 22.8985 88.4839 22.5275C88.0569 22.1495 87.7769 21.6525 87.6439 21.0365L88.5889 20.438C88.8479 21.474 89.3414 21.992 90.0694 21.992C90.3984 21.992 90.6679 21.8905 90.8779 21.6875C91.0879 21.4775 91.1929 21.2115 91.1929 20.8895C91.1929 20.6655 91.1159 20.4695 90.9619 20.3015C90.8079 20.1265 90.6154 19.9865 90.3844 19.8815C90.1534 19.7695 89.9014 19.6435 89.6284 19.5035C89.3554 19.3635 89.1034 19.22 88.8724 19.073C88.6414 18.919 88.4489 18.709 88.2949 18.443C88.1409 18.17 88.0639 17.855 88.0639 17.498C88.0639 16.952 88.2494 16.4935 88.6204 16.1225C88.9914 15.7515 89.4464 15.566 89.9854 15.566C90.8744 15.566 91.5499 15.979 92.0119 16.805Z" fill="#CACAF1"/>
<rect x="139.5" y="11.5" width="15" height="15" rx="0.5" stroke="#9492C4"/>
<path d="M147 17.5C147 17.2239 147.224 17 147.5 17C147.776 17 148 17.2239 148 17.5V19.5C148 19.7761 147.776 20 147.5 20H145.5C145.224 20 145 19.7761 145 19.5C145 19.2239 145.224 19 145.5 19H147V17.5Z" fill="#9492C4"/>
<path fill-rule="evenodd" clip-rule="evenodd" d="M152 19C152 21.7614 149.761 24 147 24C144.239 24 142 21.7614 142 19C142 16.2386 144.239 14 147 14C149.761 14 152 16.2386 152 19ZM151 19C151 21.2092 149.209 23 147 23C144.791 23 143 21.2092 143 19C143 16.7909 144.791 15 147 15C149.209 15 151 16.7909 151 19Z" fill="#9492C4"/>
</svg>
